<?xml version="1.0" standalone="no"?>
<!DOCTYPE svg PUBLIC "-//W3C//DTD SVG 20010904//EN"
 "http://www.w3.org/TR/2001/REC-SVG-20010904/DTD/svg10.dtd">
<svg version="1.0" xmlns="http://www.w3.org/2000/svg"
 width="270.000000pt" height="270.000000pt" viewBox="0 0 270.000000 270.000000"
 preserveAspectRatio="xMidYMid meet">
<metadata>
Created by potrace 1.16, written by Peter Selinger 2001-2019
</metadata>
<g transform="translate(0.000000,270.000000) scale(0.100000,-0.100000)"
fill="#000000" stroke="none">
<path d="M0 1350 l0 -1350 1350 0 1350 0 0 1350 0 1350 -1350 0 -1350 0 0
-1350z m1457 1040 c39 -5 86 -16 105 -24 l33 -15 -50 5 c-27 3 -62 7 -77 9
-20 3 -28 0 -28 -10 0 -8 8 -15 17 -15 9 0 14 -3 10 -6 -3 -3 -15 -3 -26 1
-13 4 -18 11 -14 22 6 15 -4 16 -86 10 -111 -8 -135 -17 -94 -37 31 -14 283
-26 283 -13 0 4 12 9 26 10 15 0 22 -3 17 -8 -13 -13 -203 -39 -283 -39 -60 0
-70 3 -70 18 0 14 -2 15 -10 2 -5 -8 -10 -25 -10 -38 0 -19 -4 -21 -26 -16
l-26 7 17 -33 c18 -35 16 -44 -8 -34 -16 6 -56 97 -60 138 -5 53 186 89 360
66z m-399 -152 c2 -10 -9 -22 -29 -32 -37 -19 -42 -20 -34 -6 11 17 -5 11 -99
-36 -87 -44 -214 -131 -247 -170 -10 -12 -14 -28 -10 -42 l6 -24 20 22 c11 12
20 25 20 29 0 3 3 5 8 3 4 -1 7 2 7 8 0 17 -18 11 -33 -10 -8 -11 -17 -17 -21
-13 -7 7 42 63 56 63 4 0 5 -7 2 -15 -8 -21 9 -19 40 6 14 11 23 25 20 31 -5
7 -2 8 6 3 10 -6 12 -4 7 8 -4 11 1 21 14 28 11 6 23 8 26 6 2 -3 -5 -8 -16
-12 -12 -3 -19 -11 -16 -16 3 -5 17 -2 30 7 14 9 23 20 20 24 -3 4 1 7 8 6 6
0 40 12 75 28 42 20 61 34 57 43 -3 9 -1 11 8 6 17 -11 49 -4 70 14 15 14 17
14 17 1 0 -9 -17 -20 -42 -28 -56 -16 -182 -80 -233 -117 -22 -17 -65 -53 -96
-81 -31 -28 -59 -49 -63 -45 -3 3 -6 1 -6 -6 0 -7 -25 -47 -55 -89 -56 -76
-100 -160 -136 -255 -11 -29 -16 -38 -13 -22 4 17 8 41 9 54 1 14 7 27 13 29
7 2 12 9 12 15 0 12 40 98 50 107 3 3 23 29 43 58 33 46 36 56 25 70 -11 15
-11 15 3 5 22 -18 33 -3 11 14 -9 8 -12 12 -6 9 7 -3 17 1 24 9 7 8 9 15 4 15
-5 0 -2 5 6 10 9 6 10 10 3 10 -18 0 -104 -110 -96 -123 3 -7 3 -9 -2 -5 -5 5
-17 -6 -27 -22 -21 -36 -23 -44 -5 -34 7 4 9 3 4 -2 -5 -5 -14 -9 -20 -9 -7 0
-12 -10 -11 -22 0 -12 -3 -20 -7 -17 -10 6 -66 -132 -80 -195 -6 -29 -8 -59
-5 -67 3 -9 1 -12 -4 -9 -6 3 -10 -2 -10 -12 0 -10 -3 -42 -7 -71 -5 -48 -4
-52 13 -45 16 6 17 5 4 -9 -11 -11 -20 -13 -33 -7 -23 13 -22 67 2 185 68 328
285 588 609 730 82 36 105 39 110 12z m72 -188 c0 -5 -8 -13 -17 -19 -55 -30
103 -64 280 -59 70 2 127 0 127 -4 0 -21 -204 -31 -324 -15 -33 4 -57 5 -53 1
9 -10 -12 -34 -29 -34 -9 0 -14 12 -15 33 0 26 -2 28 -8 12 -5 -11 -5 -27 0
-36 9 -19 121 -45 140 -34 8 6 10 4 4 -5 -6 -9 -4 -12 7 -8 8 4 21 2 29 -3 10
-6 0 -9 -31 -10 l-45 -2 45 -7 45 -7 -55 -1 c-63 -2 -127 13 -152 36 -25 21
-25 127 -1 154 17 19 53 25 53 8z m52 -334 l2 -91 3 93 c3 69 7 92 17 92 17 0
27 -25 20 -45 -4 -8 -1 -15 6 -15 6 0 9 -8 6 -18 -11 -33 -13 -82 -5 -82 5 0
9 5 9 12 0 6 3 8 7 5 3 -4 12 1 19 11 7 9 16 17 21 17 20 2 53 17 49 23 -2 4
7 12 20 19 47 22 23 -3 -43 -46 -38 -24 -77 -53 -89 -63 -18 -16 -25 -17 -48
-7 -25 12 -26 14 -26 105 0 79 2 92 15 88 12 -5 15 -27 17 -98z m-62 -54 c0
-5 -7 -17 -16 -28 -8 -10 -13 -13 -9 -6 8 16 1 15 -51 -8 -24 -12 -44 -27 -44
-36 0 -9 6 -14 13 -11 6 2 11 9 10 15 -1 5 7 8 19 4 14 -3 19 -1 14 6 -3 6 -1
14 5 18 8 4 9 3 5 -4 -4 -7 -1 -12 6 -12 7 0 -12 -14 -44 -31 -150 -82 -264
-239 -291 -399 -4 -25 -4 -25 -6 2 0 15 4 39 9 54 8 19 7 31 -2 42 -9 11 -10
14 -1 9 12 -7 43 39 43 63 0 10 8 22 38 55 7 8 10 20 6 26 -4 7 -3 9 3 6 5 -4
23 7 38 23 16 17 26 30 23 30 -4 0 -14 3 -24 7 -13 5 -16 3 -11 -10 3 -9 -1
-21 -11 -29 -16 -12 -16 -11 -2 7 12 16 10 16 -11 -3 -14 -12 -32 -35 -40 -50
-8 -15 -20 -33 -27 -41 -8 -8 -11 -22 -9 -32 3 -10 0 -17 -6 -16 -5 1 -19 -25
-30 -58 -27 -82 -28 -225 -3 -324 l19 -74 14 28 15 27 29 -57 c16 -32 28 -60
26 -61 -2 -2 -15 19 -29 46 -15 28 -29 46 -33 40 -3 -5 -3 -15 1 -22 4 -7 3
-8 -4 -4 -17 10 -15 -6 4 -32 9 -13 14 -26 11 -28 -7 -8 -53 72 -73 126 -22
61 -30 227 -14 298 39 180 193 361 367 431 53 22 73 25 73 13z m-77 -177 c-10
-8 -22 -15 -26 -15 -5 0 -6 -4 -3 -9 3 -5 -8 -14 -24 -21 -30 -12 -117 -106
-108 -116 10 -9 69 49 64 62 -3 8 -2 13 2 13 31 -5 54 3 48 16 -3 8 -1 15 3
15 5 0 11 -6 14 -13 5 -15 -18 -39 -29 -29 -4 4 -4 -1 -1 -10 3 -10 -1 -22
-11 -30 -15 -12 -16 -11 -3 5 19 24 8 21 -15 -4 l-19 -22 55 6 c43 5 49 4 25
-4 -16 -5 -48 -9 -70 -8 -46 1 -85 -7 -97 -19 -13 -13 79 -50 183 -76 l87 -21
-15 -25 c-8 -14 -12 -17 -9 -7 4 11 0 17 -12 17 -9 0 -26 3 -38 6 -18 5 -22 0
-27 -32 -8 -50 -42 -84 -83 -84 -18 0 -36 5 -39 10 -3 6 -17 10 -31 10 -21 0
-24 4 -24 41 0 22 5 49 10 60 7 13 7 19 0 19 -5 0 -10 -8 -10 -17 -1 -17 -1
-17 -14 -1 -7 10 -16 14 -21 10 -4 -4 -4 4 0 18 4 14 11 26 16 28 4 2 5 10 2
18 -13 33 74 147 161 211 52 38 61 42 69 28 6 -12 4 -20 -10 -30z m1192 -497
c-43 -132 -121 -252 -232 -359 -72 -69 -173 -147 -173 -132 0 4 -4 3 -8 -3
-11 -18 -100 -59 -187 -88 -79 -25 -213 -51 -222 -42 -5 4 5 6 119 26 37 7 66
16 63 20 -3 5 0 12 6 16 8 4 9 3 5 -4 -5 -8 0 -12 13 -12 11 0 22 4 25 9 3 4
20 11 38 15 27 5 30 9 18 17 -11 8 -9 9 9 4 14 -4 21 -3 18 2 -3 5 4 9 16 9
12 -1 22 4 22 11 0 6 4 15 9 20 5 5 6 3 2 -4 -9 -16 -1 -16 25 -2 11 5 17 14
14 19 -4 6 1 7 11 3 11 -4 15 -2 11 4 -4 6 5 19 19 28 15 9 23 12 20 6 -8 -13
-4 -14 18 -5 9 3 13 10 10 15 -3 5 -2 9 3 8 17 -4 43 14 36 25 -3 6 -2 8 2 3
11 -9 46 23 39 35 -3 4 -2 7 3 6 12 -4 55 41 48 51 -2 5 3 15 12 22 12 10 14
10 9 2 -4 -7 -4 -13 1 -13 15 1 64 80 57 92 -5 7 -3 8 6 3 10 -6 12 -4 7 9 -4
9 -3 15 2 12 5 -3 16 5 25 19 18 28 21 39 6 30 -6 -4 -3 10 7 29 12 26 19 33
26 24 5 -8 6 -2 3 17 -5 23 -4 27 5 15 8 -12 9 -8 5 15 -5 20 -4 25 3 16 7
-11 12 -4 22 27 7 23 14 40 17 38 2 -3 -4 -29 -13 -58z"/>
</g>
</svg>
